<svg width="462" height="137" viewBox="0 0 462 137" fill="none" xmlns="http://www.w3.org/2000/svg">
<path d="M112.393 32.3401C111.786 31.4454 111.051 30.6784 110.253 30.0392C109.454 29.4002 108.591 28.8888 107.729 28.4734C106.866 28.0899 105.971 27.7703 105.077 27.6106C104.214 27.4188 103.352 27.323 102.553 27.323H93.2243V51.5141H102.553C103.352 51.5141 104.214 51.4183 105.077 51.2265C105.971 51.0348 106.834 50.7472 107.729 50.3637C108.591 49.9802 109.454 49.437 110.253 48.7979C111.051 48.1587 111.786 47.3917 112.393 46.497C113 45.6022 113.479 44.5476 113.863 43.3971C114.214 42.2467 114.406 40.9046 114.406 39.4346C114.406 37.9646 114.214 36.6223 113.863 35.44C113.479 34.2895 113 33.235 112.393 32.3401ZM96.4513 30.3908H101.595C102.904 30.3908 104.182 30.5506 105.301 30.9021C106.419 31.2537 107.409 31.7969 108.24 32.5319C109.07 33.2669 109.709 34.1937 110.189 35.3122C110.668 36.4307 110.923 37.8047 110.923 39.4026C110.923 41.0004 110.668 42.3746 110.189 43.4931C109.709 44.6116 109.07 45.5702 108.24 46.2733C107.409 47.0083 106.419 47.5516 105.301 47.8711C104.15 48.2226 102.904 48.3824 101.595 48.3824H96.4513V30.3908Z" fill="white"/>
<path d="M120.38 27.323C119.773 27.323 119.262 27.5467 118.847 27.9621C118.431 28.3775 118.24 28.8888 118.24 29.4641C118.24 30.0712 118.431 30.5826 118.847 30.998C119.262 31.3815 119.773 31.6052 120.38 31.6052C120.987 31.6052 121.498 31.4134 121.882 30.998C122.265 30.6145 122.489 30.1031 122.489 29.496C122.489 28.9208 122.297 28.4095 121.882 27.9941C121.466 27.5467 120.987 27.323 120.38 27.323Z" fill="white"/>
<path d="M118.847 35.376H121.914V51.514H118.847V35.376Z" fill="white"/>
<path d="M139.804 37.5489C139.261 36.75 138.559 36.1749 137.696 35.7275C136.642 35.2161 135.523 34.9604 134.437 34.9604C133.159 34.9604 131.977 35.1522 130.923 35.5357C129.869 35.9192 128.974 36.4945 128.207 37.2295C127.441 37.9645 126.866 38.8592 126.45 39.9138C126.035 40.9684 125.843 42.1508 125.843 43.4609C125.843 44.6434 126.067 45.7299 126.45 46.7525C126.866 47.7751 127.441 48.6379 128.207 49.3729C128.974 50.1079 129.869 50.6832 130.923 51.0986C131.977 51.514 133.127 51.7058 134.437 51.7058C135.523 51.7058 136.61 51.4502 137.632 50.9708C138.495 50.5874 139.197 49.9801 139.804 49.2132V50.5874C139.804 51.3863 139.709 52.1852 139.549 52.9202C139.389 53.6552 139.07 54.2943 138.654 54.8695C138.239 55.4448 137.632 55.8921 136.929 56.2117C136.194 56.5313 135.236 56.691 134.118 56.691C132.968 56.691 131.913 56.4674 131.019 56.0199C130.124 55.5726 129.262 54.9014 128.463 54.0386L128.303 53.8469L126.099 56.3715L126.258 56.5313C127.441 57.6498 128.655 58.4487 129.901 58.896C131.147 59.3434 132.552 59.5672 134.118 59.5672C136.961 59.5672 139.166 58.8002 140.667 57.2663C142.169 55.7643 142.903 53.4954 142.903 50.5874V35.376H139.836V37.5489H139.804ZM134.437 48.8617C133.702 48.8617 133 48.7339 132.361 48.4462C131.722 48.1586 131.147 47.7751 130.667 47.2958C130.188 46.8165 129.805 46.2412 129.517 45.5701C129.23 44.9309 129.102 44.1959 129.102 43.4609C129.102 42.662 129.23 41.8951 129.485 41.224C129.741 40.553 130.092 39.9457 130.571 39.4664C131.051 38.9551 131.594 38.5716 132.233 38.2839C132.872 37.9964 133.607 37.8366 134.405 37.8366C135.204 37.8366 135.939 37.9645 136.61 38.252C137.281 38.5396 137.856 38.9231 138.303 39.4024C138.782 39.8819 139.134 40.489 139.389 41.1601C139.645 41.8312 139.773 42.5981 139.773 43.429C139.773 44.164 139.645 44.867 139.421 45.5062C139.197 46.1454 138.846 46.7525 138.367 47.2319C137.92 47.7432 137.344 48.1267 136.674 48.4462C136.035 48.7019 135.268 48.8617 134.437 48.8617Z" fill="white"/>
<path d="M149.261 27.323C148.654 27.323 148.143 27.5467 147.728 27.9621C147.312 28.3775 147.121 28.8888 147.121 29.4641C147.121 30.0712 147.312 30.5826 147.728 30.998C148.143 31.3815 148.654 31.6052 149.261 31.6052C149.868 31.6052 150.379 31.4134 150.763 30.998C151.146 30.6145 151.37 30.1031 151.37 29.496C151.37 28.9208 151.178 28.4095 150.763 27.9941C150.347 27.5467 149.836 27.323 149.261 27.323Z" fill="white"/>
<path d="M147.728 35.376H150.795V51.514H147.728V35.376Z" fill="white"/>
<path d="M164.532 48.5423C164.213 48.702 163.829 48.8298 163.446 48.9258C163.063 49.0216 162.679 49.0535 162.296 49.0535C161.753 49.0535 161.369 48.9577 161.082 48.7979C160.794 48.6381 160.603 48.4144 160.475 48.1268C160.347 47.8392 160.251 47.4877 160.219 47.0723C160.187 46.6568 160.187 46.1774 160.187 45.6661V38.0285H164.82V35.3761H160.187V30.9021H157.12V35.3761H153.702V38.0285H157.12V46.4012C157.12 47.232 157.184 47.967 157.28 48.6381C157.376 49.3412 157.6 49.9163 157.951 50.3958C158.302 50.8751 158.75 51.2586 159.357 51.5142C159.932 51.7698 160.73 51.8977 161.689 51.8977C162.2 51.8977 162.711 51.8338 163.286 51.7379C163.829 51.642 164.373 51.4823 164.82 51.2905H164.948L164.852 48.3824L164.532 48.5423Z" fill="white"/>
<path d="M181.465 49.9482C181.433 49.4689 181.401 49.0214 181.401 48.574V41.8312C181.401 39.5623 180.858 37.8366 179.803 36.6861C178.749 35.5357 176.992 34.9604 174.596 34.9604C173.446 34.9604 172.296 35.1522 171.146 35.5677C170.027 35.9831 169.037 36.5903 168.174 37.4212L168.015 37.581L169.963 39.6262L170.123 39.4664C170.73 38.9231 171.433 38.5077 172.232 38.2201C173.03 37.9325 173.829 37.8046 174.66 37.8046C175.842 37.8046 176.736 38.0923 177.375 38.6355C178.014 39.1788 178.334 39.9777 178.334 41.0642V41.3199H177.535C176.577 41.3199 175.49 41.3519 174.34 41.4477C173.19 41.5436 172.072 41.7673 171.05 42.1188C170.027 42.5023 169.165 43.0775 168.462 43.8125C167.759 44.5794 167.408 45.6659 167.408 47.0082C167.408 47.8071 167.567 48.5101 167.887 49.1173C168.206 49.7245 168.654 50.2358 169.197 50.6512C169.74 51.0667 170.379 51.3863 171.114 51.5779C171.848 51.8017 172.615 51.8975 173.414 51.8975C174.66 51.8975 175.746 51.6099 176.641 51.0986C177.343 50.6832 177.95 50.1399 178.43 49.5328C178.43 49.6925 178.43 49.8843 178.43 50.076C178.43 50.5235 178.494 50.9389 178.589 51.3224L178.621 51.4821H181.593L181.561 51.2264C181.561 50.8749 181.497 50.4275 181.465 49.9482ZM173.925 49.2771C172.999 49.2771 172.2 49.0854 171.593 48.7019C170.986 48.3504 170.698 47.7112 170.698 46.8164C170.698 45.8258 171.146 45.1227 172.04 44.6754C172.999 44.228 174.308 44.0043 175.938 44.0043H178.334V44.7712C178.302 45.3784 178.206 45.9855 178.014 46.5288C177.823 47.0721 177.535 47.5514 177.184 47.935C176.832 48.3504 176.353 48.67 175.842 48.8936C175.299 49.1493 174.66 49.2771 173.925 49.2771Z" fill="white"/>
<path d="M186.161 25.7251H189.228V51.5142H186.161V25.7251Z" fill="white"/>
<path d="M13.2904 76.6642H18.7535V83.5668C17.9229 83.9822 17.0283 84.3018 16.038 84.5255C13.4502 85.1008 11.118 84.9409 9.1691 84.142C7.987 83.6627 6.9967 82.9916 6.1341 82.1287C5.3034 81.2659 4.6325 80.2433 4.1533 79.0609C3.6741 77.8785 3.4504 76.6003 3.4504 75.2261C3.4504 73.82 3.6741 72.5097 4.1533 71.3593C4.6325 70.1769 5.2715 69.1543 6.1021 68.3234C6.9328 67.4606 7.9231 66.7895 9.0733 66.3102C10.1915 65.8308 11.4374 65.5752 12.7793 65.5752C13.9613 65.5752 15.1115 65.7988 16.2296 66.2463C17.3478 66.6937 18.3063 67.3648 19.073 68.1956L19.2328 68.3873L21.6608 65.8308L21.5011 65.671C20.3509 64.5206 19.0091 63.6898 17.5395 63.2103C16.1019 62.731 14.5364 62.4753 12.9709 62.4753C11.1499 62.4753 9.4567 62.7949 7.8912 63.4021C6.3257 64.0093 4.952 64.8721 3.7699 65.9906C2.5878 67.0772 1.6613 68.4513 0.9904 69.9852C0.3195 71.5511 0 73.3087 0 75.1942C0 77.0477 0.3195 78.8053 0.9585 80.3392C1.5974 81.9051 2.492 83.2473 3.6421 84.3658C4.7922 85.4842 6.166 86.347 7.7315 86.9542C9.2969 87.5614 11.0221 87.8809 12.907 87.8809C14.4725 87.8809 16.038 87.6893 17.5395 87.3377C19.073 86.9862 20.5426 86.4109 21.9164 85.644L22.0442 85.5801V73.5324H13.3224V76.6642H13.2904Z" fill="white"/>
<path d="M41.213 73.1167C40.4463 72.3817 39.5517 71.7746 38.4974 71.3591C37.4432 70.9437 36.293 70.72 35.0471 70.72C33.8011 70.72 32.651 70.9437 31.5967 71.3591C30.5424 71.7746 29.6478 72.3498 28.8811 73.1167C28.1143 73.8517 27.5073 74.7466 27.092 75.8011C26.6447 76.8237 26.4211 78.0061 26.4211 79.2525C26.4211 80.4988 26.6447 81.6492 27.092 82.6718C27.5393 83.6945 28.1143 84.5892 28.8811 85.3562C29.6478 86.0912 30.5424 86.6984 31.5967 87.1138C32.651 87.5292 33.8011 87.753 35.0471 87.753C36.293 87.753 37.4432 87.5292 38.4974 87.1138C39.5517 86.6984 40.4463 86.1231 41.213 85.3562C41.9798 84.6211 42.5549 83.7264 43.0021 82.6718C43.4494 81.6492 43.673 80.4988 43.673 79.2525C43.673 78.0061 43.4494 76.8237 43.0021 75.8011C42.5549 74.7785 41.9478 73.8837 41.213 73.1167ZM35.0471 84.8449C34.2164 84.8449 33.4816 84.685 32.8426 84.4295C32.2037 84.1418 31.6286 83.7583 31.1494 83.2471C30.6702 82.7357 30.3187 82.1605 30.0632 81.4894C29.8076 80.8183 29.6798 80.0833 29.6798 79.2844C29.6798 78.4855 29.8076 77.7186 30.0632 77.0475C30.3187 76.3763 30.6702 75.7691 31.1494 75.2898C31.6286 74.7785 32.1717 74.3951 32.8426 74.1074C33.4816 73.8198 34.2164 73.6601 35.0471 73.6601C35.8777 73.6601 36.6125 73.8198 37.2515 74.1074C37.8904 74.3951 38.4655 74.8105 38.9447 75.2898C39.4239 75.8011 39.7754 76.3763 40.031 77.0475C40.2865 77.7186 40.4143 78.4855 40.4143 79.2844C40.4143 80.0833 40.2865 80.8183 40.031 81.4894C39.7754 82.1605 39.4239 82.7677 38.9447 83.2471C38.4655 83.7583 37.9224 84.1418 37.2515 84.4295C36.6125 84.685 35.8777 84.8449 35.0471 84.8449Z" fill="white"/>
<path d="M53.545 83.1193L48.8167 71.2953L48.7528 71.1675H45.2385L51.7559 87.1778L51.8198 87.3056H55.0146L61.4042 71.1675H58.0816L53.545 83.1193Z" fill="white"/>
<path d="M77.0273 72.9892C76.3559 72.2541 75.5253 71.7109 74.5668 71.3274C73.6403 70.9439 72.586 70.7522 71.4679 70.7522C70.2858 70.7522 69.1676 70.9759 68.1772 71.3913C67.1868 71.8068 66.2923 72.3819 65.5575 73.1489C64.8227 73.8839 64.2476 74.8107 63.8323 75.8333C63.4169 76.8559 63.2253 78.0383 63.2253 79.2846C63.2253 80.435 63.4169 81.5535 63.8003 82.5762C64.1837 83.5988 64.7268 84.5255 65.4297 85.2925C66.1325 86.0594 66.9951 86.6666 68.0175 87.114C69.0398 87.5614 70.158 87.7851 71.404 87.7851C72.9055 87.7851 74.2473 87.5294 75.3975 87.0501C76.5473 86.5708 77.6023 85.6759 78.5603 84.4297L78.6883 84.2379L76.3879 82.4484L76.2601 82.6081C75.653 83.3751 74.9502 83.9503 74.2154 84.3338C73.4806 84.7173 72.5221 84.909 71.4359 84.909C70.765 84.909 70.126 84.7812 69.551 84.5255C68.9759 84.2698 68.4647 83.9184 68.0494 83.4709C67.6341 83.0235 67.2507 82.5123 66.9951 81.937C66.7715 81.4257 66.6117 80.8824 66.5479 80.3392H79.1993V79.2207C79.1993 77.9105 79.0073 76.6961 78.6563 75.6735C78.2413 74.6189 77.6973 73.7242 77.0273 72.9892ZM75.8447 77.5909H66.484C66.6756 76.4404 67.1549 75.4818 67.9536 74.7468C68.7842 73.9798 69.9343 73.5964 71.3401 73.5964C72.7458 73.5964 73.864 73.9798 74.6307 74.7468C75.3655 75.4818 75.7489 76.4404 75.8447 77.5909Z" fill="white"/>
<path d="M90.7643 70.7522C90.1253 70.7522 89.4863 70.848 88.9113 71.0079C88.3363 71.1996 87.7933 71.4233 87.3463 71.7109C86.8983 71.9985 86.4833 72.318 86.1323 72.7015C85.9723 72.8933 85.8123 73.053 85.6843 73.2448C85.6843 73.053 85.6843 72.8294 85.6533 72.6376C85.6213 72.2222 85.6213 71.8068 85.6213 71.3913V71.1676H82.6813V71.3913C82.6813 71.9026 82.7133 72.4779 82.7453 73.1169C82.7773 73.7242 82.8093 74.3953 82.8093 75.1303V87.3377H85.8763V79.4764C85.8763 77.7188 86.2283 76.3126 86.9303 75.322C87.6013 74.3314 88.7203 73.8519 90.2533 73.8519C90.7323 73.8519 91.1803 73.9158 91.5953 74.0437L91.8503 74.1396L92.0743 71.0398L91.9143 70.9759C91.5953 70.8161 91.1803 70.7522 90.7643 70.7522Z" fill="white"/>
<path d="M108.495 72.6057C107.984 72.0304 107.313 71.5511 106.547 71.2315C105.78 70.9119 104.821 70.7522 103.767 70.7522C103.128 70.7522 102.489 70.848 101.914 71.0079C101.339 71.1996 100.796 71.4233 100.349 71.7109C99.9013 71.9985 99.4863 72.318 99.1353 72.7015C98.9753 72.8933 98.8153 73.053 98.6873 73.2448C98.6873 73.053 98.6873 72.8294 98.6553 72.6376C98.6233 72.2222 98.6233 71.8068 98.6233 71.3913V71.1676H95.6843V71.3913C95.6843 71.9026 95.7163 72.4779 95.7483 73.1169C95.7803 73.7242 95.8123 74.3953 95.8123 75.1303V87.3377H98.8793V79.4764C98.8793 78.6135 98.9753 77.7827 99.1673 77.0796C99.3583 76.3765 99.6463 75.7694 99.9973 75.2581C100.349 74.7468 100.828 74.3633 101.435 74.0757C102.01 73.7881 102.713 73.6603 103.543 73.6603C104.725 73.6603 105.556 74.0118 106.067 74.7148C106.61 75.4179 106.898 76.4404 106.898 77.7188V87.3697H109.965V77.4631C109.965 76.5043 109.837 75.6096 109.614 74.7787C109.39 73.9158 109.007 73.1808 108.495 72.6057Z" fill="white"/>
<path d="M137.217 72.6057C136.737 71.9985 136.067 71.5511 135.268 71.2315C134.469 70.9119 133.511 70.7522 132.361 70.7522C131.115 70.7522 130.092 71.0398 129.294 71.583C128.623 72.0624 127.984 72.7015 127.409 73.5324C127.313 73.3407 127.185 73.1489 127.057 72.9252C126.834 72.5418 126.514 72.2222 126.131 71.9026C125.747 71.583 125.236 71.3274 124.629 71.1037C124.022 70.88 123.287 70.7522 122.425 70.7522C121.786 70.7522 121.147 70.848 120.572 71.0079C119.997 71.1996 119.454 71.4233 119.006 71.7109C118.559 71.9985 118.144 72.318 117.792 72.7015C117.633 72.8933 117.473 73.053 117.345 73.2448C117.345 73.053 117.345 72.8294 117.313 72.6376C117.281 72.2222 117.281 71.8068 117.281 71.3913V71.1676H114.342V71.3913C114.342 71.9026 114.374 72.4779 114.406 73.1169C114.438 73.7242 114.47 74.3953 114.47 75.1303V87.3377H117.537V79.4764C117.537 78.6135 117.633 77.7827 117.824 77.0796C118.016 76.3765 118.303 75.7694 118.655 75.2581C119.006 74.7468 119.486 74.3633 120.093 74.0757C120.668 73.7881 121.37 73.6603 122.201 73.6603C123.191 73.6603 123.894 73.9798 124.31 74.6509C124.757 75.3539 124.981 76.5364 124.981 78.23V87.3697H128.048V78.0703C128.048 77.4311 128.143 76.8239 128.367 76.2488C128.559 75.7054 128.846 75.2261 129.198 74.8426C129.549 74.4592 129.964 74.1715 130.412 73.9479C130.859 73.7242 131.37 73.6283 131.881 73.6283C132.584 73.6283 133.191 73.7561 133.67 73.9798C134.118 74.2035 134.501 74.5231 134.757 74.8746C135.012 75.2581 135.204 75.7054 135.3 76.1529C135.396 76.6322 135.46 77.1754 135.46 77.6868V87.3058H138.527V77.5589C138.527 76.5364 138.431 75.6096 138.207 74.7787C138.047 73.9158 137.696 73.1808 137.217 72.6057Z" fill="white"/>
<path d="M156.034 72.9892C155.363 72.2541 154.533 71.7109 153.574 71.3274C152.648 70.9439 151.593 70.7522 150.475 70.7522C149.293 70.7522 148.175 70.9759 147.184 71.3913C146.194 71.8068 145.3 72.3819 144.565 73.1489C143.83 73.8839 143.255 74.8107 142.84 75.8333C142.424 76.8559 142.233 78.0383 142.233 79.2846C142.233 80.435 142.424 81.5535 142.808 82.5762C143.191 83.5988 143.734 84.5255 144.437 85.2925C145.14 86.0594 146.002 86.6666 147.025 87.114C148.047 87.5614 149.165 87.7851 150.411 87.7851C151.913 87.7851 153.255 87.5294 154.405 87.0501C155.555 86.5708 156.609 85.6759 157.568 84.4297L157.695 84.2379L155.395 82.4484L155.267 82.6081C154.66 83.3751 153.957 83.9503 153.223 84.3338C152.488 84.7173 151.529 84.909 150.443 84.909C149.772 84.909 149.133 84.7812 148.558 84.5255C147.983 84.2698 147.472 83.9184 147.057 83.4709C146.641 83.0235 146.258 82.5123 146.002 81.937C145.779 81.4257 145.619 80.8824 145.555 80.3392H158.207V79.2207C158.207 77.9105 158.015 76.6961 157.663 75.6735C157.248 74.6189 156.705 73.7242 156.034 72.9892ZM154.852 77.5909H145.491C145.683 76.4404 146.162 75.4818 146.961 74.7468C147.791 73.9798 148.942 73.5964 150.347 73.5964C151.753 73.5964 152.871 73.9798 153.638 74.7468C154.373 75.4818 154.756 76.4404 154.852 77.5909Z" fill="white"/>
<path d="M174.468 72.6057C173.957 72.0304 173.286 71.5511 172.519 71.2315C171.753 70.9119 170.794 70.7522 169.74 70.7522C169.101 70.7522 168.462 70.848 167.887 71.0079C167.312 71.1996 166.769 71.4233 166.321 71.7109C165.874 71.9985 165.459 72.318 165.107 72.7015C164.948 72.8933 164.788 73.053 164.66 73.2448C164.66 73.053 164.66 72.8294 164.628 72.6376C164.596 72.2222 164.596 71.8068 164.596 71.3913V71.1676H161.657V71.3913C161.657 71.9026 161.689 72.4779 161.721 73.1169C161.753 73.7242 161.785 74.3953 161.785 75.1303V87.3377H164.852V79.4764C164.852 78.6135 164.948 77.7827 165.139 77.0796C165.331 76.3765 165.619 75.7694 165.97 75.2581C166.321 74.7468 166.801 74.3633 167.408 74.0757C167.983 73.7881 168.686 73.6603 169.516 73.6603C170.698 73.6603 171.529 74.0118 172.04 74.7148C172.583 75.4179 172.871 76.4404 172.871 77.7188V87.3697H175.938V77.4631C175.938 76.5043 175.81 75.6096 175.586 74.7787C175.363 73.9158 174.979 73.1808 174.468 72.6057Z" fill="white"/>
<path d="M188.813 84.3337C188.493 84.4935 188.11 84.6212 187.727 84.7172C187.343 84.813 186.96 84.845 186.576 84.845C186.033 84.845 185.65 84.7491 185.362 84.5893C185.075 84.4296 184.883 84.2058 184.755 83.9183C184.628 83.6307 184.532 83.2791 184.5 82.8637C184.468 82.4483 184.468 81.9689 184.468 81.4576V73.8199H189.1V71.1675H184.468V66.6936H181.401V71.1675H177.982V73.8199H181.401V82.1926C181.401 83.0234 181.465 83.7584 181.561 84.4296C181.656 85.1326 181.88 85.7078 182.232 86.1872C182.583 86.6665 183.03 87.05 183.637 87.3057C184.212 87.5613 185.011 87.6892 185.969 87.6892C186.481 87.6892 186.992 87.6253 187.567 87.5293C188.11 87.4335 188.653 87.2737 189.1 87.0819L189.228 87.0181L189.132 84.11L188.813 84.3337Z" fill="white"/>
<path d="M59.9346 100.184H56.9634L46.2928 124.375H49.9988L52.4268 118.559H63.992L66.4201 124.375H70.1899L59.9665 100.312L59.9346 100.184ZM62.778 115.491H53.7367L58.3691 104.563L62.778 115.491Z" fill="white"/>
<path d="M85.9723 120.445V108.238H82.9053V116.099C82.9053 116.961 82.8093 117.76 82.6173 118.495C82.4263 119.199 82.1383 119.838 81.7873 120.349C81.4033 120.86 80.9243 121.244 80.3493 121.531C79.7743 121.819 79.0713 121.946 78.2413 121.946C77.0583 121.946 76.2281 121.595 75.7169 120.924C75.1738 120.221 74.8863 119.199 74.8863 117.92V108.27H71.8193V118.176C71.8193 119.134 71.9471 120.03 72.1707 120.828C72.4263 121.659 72.8097 122.362 73.3208 122.938C73.832 123.513 74.471 123.992 75.2697 124.312C76.0364 124.631 76.9633 124.791 78.0493 124.791C78.6883 124.791 79.3273 124.695 79.9023 124.535C80.4773 124.375 80.9883 124.12 81.4673 123.832C81.9153 123.545 82.3303 123.193 82.6813 122.841C82.8413 122.649 83.0013 122.49 83.1293 122.298C83.1293 122.49 83.1293 122.681 83.1613 122.873C83.1923 123.289 83.1923 123.736 83.1923 124.152V124.375H86.1323V124.152C86.1323 123.641 86.1003 123.034 86.0683 122.426C86.0043 121.787 85.9723 121.148 85.9723 120.445Z" fill="white"/>
<path d="M99.4863 121.403C99.1673 121.563 98.7833 121.691 98.4003 121.787C98.0163 121.882 97.6333 121.914 97.2503 121.914C96.7073 121.914 96.3233 121.819 96.0363 121.659C95.7483 121.499 95.5563 121.275 95.4293 120.988C95.3013 120.7 95.2053 120.349 95.1733 119.934C95.1413 119.518 95.1413 119.039 95.1413 118.527V110.889H99.7743V108.238H95.1413V103.763H92.0743V108.238H88.6563V110.889H92.0743V119.263C92.0743 120.093 92.1383 120.828 92.2343 121.499C92.3303 122.202 92.5533 122.778 92.9053 123.257C93.2563 123.736 93.7033 124.12 94.3103 124.375C94.8853 124.631 95.6843 124.759 96.6433 124.759C97.1543 124.759 97.6653 124.695 98.2403 124.599C98.7833 124.503 99.3263 124.343 99.7743 124.152L99.9013 124.088L99.8053 121.18L99.4863 121.403Z" fill="white"/>
<path d="M115.907 109.675C115.396 109.1 114.725 108.621 113.958 108.302C113.192 107.981 112.265 107.821 111.211 107.821C110.604 107.821 109.997 107.917 109.454 108.077C108.911 108.238 108.4 108.461 107.952 108.717C107.505 108.972 107.122 109.26 106.77 109.579C106.61 109.739 106.483 109.867 106.355 110.027V98.5859H103.288V124.375H106.355V116.514C106.355 115.652 106.451 114.82 106.642 114.117C106.834 113.414 107.09 112.807 107.473 112.296C107.824 111.784 108.304 111.401 108.879 111.113C109.454 110.825 110.157 110.698 110.987 110.698C112.137 110.698 112.968 111.049 113.511 111.752C114.054 112.456 114.342 113.478 114.342 114.756V124.407H117.409V114.5C117.409 113.542 117.281 112.647 117.026 111.817C116.802 110.985 116.418 110.282 115.907 109.675Z" fill="white"/>
<path d="M135.779 110.187C135.012 109.452 134.118 108.845 133.063 108.429C132.009 108.014 130.859 107.79 129.613 107.79C128.367 107.79 127.217 108.014 126.163 108.429C125.108 108.845 124.214 109.42 123.447 110.187C122.68 110.921 122.073 111.817 121.658 112.871C121.211 113.893 120.987 115.077 120.987 116.323C120.987 117.569 121.211 118.719 121.658 119.742C122.105 120.764 122.68 121.659 123.447 122.427C124.214 123.161 125.108 123.768 126.163 124.184C127.217 124.599 128.367 124.823 129.613 124.823C130.859 124.823 132.009 124.599 133.063 124.184C134.118 123.768 135.012 123.193 135.779 122.427C136.546 121.691 137.121 120.796 137.568 119.742C138.015 118.719 138.239 117.569 138.239 116.323C138.239 115.077 138.015 113.893 137.568 112.871C137.153 111.849 136.546 110.953 135.779 110.187ZM129.613 121.914C128.782 121.914 128.048 121.755 127.409 121.499C126.77 121.212 126.195 120.828 125.715 120.317C125.236 119.806 124.885 119.231 124.629 118.559C124.374 117.888 124.246 117.153 124.246 116.354C124.246 115.556 124.374 114.788 124.629 114.117C124.885 113.446 125.236 112.839 125.715 112.36C126.195 111.849 126.738 111.465 127.409 111.177C128.048 110.889 128.782 110.73 129.613 110.73C130.444 110.73 131.179 110.889 131.817 111.177C132.456 111.465 133.031 111.881 133.511 112.36C133.99 112.871 134.341 113.446 134.597 114.117C134.853 114.788 134.98 115.556 134.98 116.354C134.98 117.153 134.853 117.888 134.597 118.559C134.341 119.231 133.99 119.838 133.511 120.317C133.031 120.828 132.488 121.212 131.817 121.499C131.179 121.787 130.444 121.914 129.613 121.914Z" fill="white"/>
<path d="M150.06 107.822C149.421 107.822 148.782 107.918 148.207 108.078C147.632 108.27 147.089 108.493 146.641 108.781C146.194 109.068 145.779 109.388 145.427 109.771C145.268 109.963 145.108 110.123 144.98 110.314C144.98 110.123 144.98 109.899 144.948 109.707C144.916 109.292 144.916 108.877 144.916 108.461V108.238H141.977V108.461C141.977 108.972 142.009 109.548 142.041 110.187C142.073 110.794 142.105 111.465 142.105 112.2V124.407H145.172V116.546C145.172 114.788 145.523 113.382 146.226 112.392C146.897 111.401 148.015 110.921 149.549 110.921C150.028 110.921 150.475 110.985 150.89 111.113L151.146 111.209L151.37 108.11L151.21 108.046C150.89 107.886 150.475 107.822 150.06 107.822Z" fill="white"/>
<path d="M154.405 108.238H157.472V124.375H154.405V108.238Z" fill="white"/>
<path d="M155.938 100.184C155.331 100.184 154.82 100.407 154.405 100.823C153.989 101.239 153.798 101.75 153.798 102.325C153.798 102.932 153.989 103.443 154.405 103.859C154.82 104.242 155.331 104.466 155.938 104.466C156.545 104.466 157.056 104.274 157.44 103.859C157.823 103.475 158.047 102.964 158.047 102.357C158.047 101.782 157.855 101.271 157.44 100.856C157.024 100.407 156.513 100.184 155.938 100.184Z" fill="white"/>
<path d="M170.698 121.403C170.379 121.563 169.995 121.691 169.612 121.787C169.229 121.882 168.845 121.914 168.462 121.914C167.919 121.914 167.535 121.819 167.248 121.659C166.96 121.499 166.769 121.275 166.641 120.988C166.513 120.7 166.417 120.349 166.385 119.934C166.353 119.518 166.353 119.039 166.353 118.527V110.889H170.986V108.238H166.353V103.763H163.286V108.238H159.868V110.889H163.286V119.263C163.286 120.093 163.35 120.828 163.446 121.499C163.542 122.202 163.766 122.778 164.117 123.257C164.468 123.736 164.916 124.12 165.523 124.375C166.098 124.631 166.896 124.759 167.855 124.759C168.366 124.759 168.877 124.695 169.452 124.599C169.995 124.503 170.539 124.343 170.986 124.152L171.114 124.088L171.018 121.18L170.698 121.403Z" fill="white"/>
<path d="M185.906 108.238L181.369 120.221L176.673 108.365L176.609 108.238H173.094L179.708 124.248L178.653 127.124C178.366 127.891 178.046 128.498 177.663 128.945C177.311 129.36 176.736 129.584 175.97 129.584C175.586 129.584 175.267 129.584 174.979 129.552C174.724 129.52 174.436 129.456 174.181 129.36L173.925 129.264L173.51 131.981L173.669 132.045C174.053 132.237 174.468 132.364 174.915 132.396C175.331 132.46 175.746 132.46 176.129 132.46C176.96 132.46 177.631 132.364 178.206 132.141C178.781 131.917 179.292 131.598 179.708 131.182C180.123 130.767 180.474 130.288 180.762 129.712C181.049 129.169 181.305 128.53 181.593 127.859L189.292 108.27H185.906V108.238Z" fill="white"/>
<path d="M328.074 117.952C328.074 118.655 327.979 119.167 327.819 119.55C327.659 119.934 327.435 120.221 327.18 120.445C326.924 120.668 326.605 120.796 326.285 120.86C325.966 120.924 325.678 120.956 325.391 120.956H323.41C322.547 120.956 321.813 120.828 321.238 120.605C320.662 120.349 320.183 120.03 319.832 119.614C319.48 119.199 319.225 118.719 319.065 118.144C318.905 117.569 318.841 116.961 318.841 116.291V109.132H315.711V123.992C315.711 125.813 315.423 127.156 314.88 128.05C314.337 128.945 313.314 129.392 311.781 129.392C311.525 129.392 311.238 129.392 310.95 129.36C310.663 129.36 310.375 129.328 310.12 129.264L309.193 129.105L308.842 132.237C309.129 132.269 309.545 132.333 310.056 132.396C310.567 132.46 311.142 132.492 311.749 132.492C312.867 132.492 313.89 132.269 314.784 131.853C315.679 131.438 316.413 130.863 316.988 130.127C317.564 129.392 318.011 128.53 318.33 127.507C318.65 126.516 318.778 125.43 318.778 124.312V121.307C319.001 121.946 319.289 122.458 319.64 122.809C319.992 123.193 320.375 123.481 320.822 123.673C321.238 123.864 321.685 123.992 322.132 124.056C322.515 124.088 322.899 124.12 323.282 124.12H326.03C326.988 124.12 327.787 123.96 328.426 123.673C329.065 123.385 329.576 123.002 329.991 122.49C330.375 122.01 330.662 121.435 330.854 120.796C331.046 120.157 331.141 119.486 331.141 118.783V95.7422H328.011V117.952H328.074Z" fill="white"/>
<path d="M218.876 100.216C218.524 100.568 218.333 101.015 218.333 101.527C218.333 102.038 218.524 102.453 218.876 102.836C219.227 103.188 219.643 103.38 220.154 103.38C220.665 103.38 221.08 103.188 221.432 102.836C221.783 102.485 221.975 102.038 221.975 101.527C221.975 101.015 221.783 100.568 221.432 100.216C221.08 99.8644 220.633 99.6733 220.154 99.6733C219.675 99.6733 219.227 99.8644 218.876 100.216Z" fill="white"/>
<path d="M213.605 100.216C213.253 100.568 213.061 101.015 213.061 101.527C213.061 102.038 213.253 102.453 213.605 102.836C213.956 103.188 214.371 103.38 214.882 103.38C215.394 103.38 215.841 103.188 216.192 102.836C216.544 102.485 216.735 102.038 216.735 101.527C216.735 101.015 216.544 100.568 216.192 100.216C215.841 99.8644 215.394 99.6733 214.882 99.6733C214.403 99.6733 213.988 99.8644 213.605 100.216Z" fill="white"/>
<path d="M256.607 128.689C256.127 128.689 255.68 128.881 255.329 129.233C254.977 129.584 254.786 130.031 254.786 130.542C254.786 131.022 254.977 131.469 255.329 131.82C255.68 132.172 256.095 132.363 256.607 132.363C257.118 132.363 257.565 132.172 257.916 131.82C258.268 131.469 258.46 131.054 258.46 130.542C258.46 130.031 258.268 129.616 257.916 129.233C257.565 128.881 257.118 128.689 256.607 128.689Z" fill="white"/>
<path d="M251.367 128.689C250.888 128.689 250.441 128.881 250.089 129.233C249.738 129.584 249.546 130.031 249.546 130.542C249.546 131.022 249.738 131.469 250.089 131.82C250.441 132.172 250.856 132.363 251.367 132.363C251.878 132.363 252.294 132.172 252.677 131.82C253.028 131.469 253.22 131.054 253.22 130.542C253.22 130.031 253.028 129.616 252.677 129.233C252.294 128.881 251.878 128.689 251.367 128.689Z" fill="white"/>
<path d="M298.075 100.216C297.724 100.568 297.532 101.015 297.532 101.527C297.532 102.038 297.724 102.453 298.075 102.836C298.427 103.188 298.874 103.38 299.385 103.38C299.864 103.38 300.312 103.188 300.663 102.836C301.014 102.485 301.206 102.038 301.206 101.527C301.206 101.015 301.014 100.568 300.663 100.216C300.312 99.8644 299.864 99.6733 299.385 99.6733C298.874 99.6733 298.427 99.8644 298.075 100.216Z" fill="white"/>
<path d="M309.353 114.884C309.353 113.766 309.193 112.775 308.874 111.881C308.554 110.985 308.107 110.218 307.5 109.548C306.893 108.909 306.158 108.397 305.295 108.046C304.433 107.695 303.474 107.502 302.42 107.502C301.174 107.502 300.024 107.758 298.97 108.238C297.915 108.717 297.021 109.324 296.286 110.091C295.519 110.857 294.944 111.721 294.561 112.743C294.146 113.734 293.954 114.756 293.954 115.811C293.954 116.93 294.146 117.92 294.529 118.815C294.912 119.678 295.392 120.413 295.967 120.924H289.002C287.98 120.924 287.149 120.764 286.574 120.445C285.967 120.125 285.52 119.742 285.232 119.295C284.913 118.847 284.721 118.399 284.625 117.92C284.529 117.441 284.497 117.025 284.497 116.706C284.497 113.83 283.826 111.593 282.516 110.027C281.207 108.429 279.322 107.662 276.958 107.662C275.807 107.662 274.753 107.886 273.795 108.302C272.836 108.717 272.006 109.324 271.335 110.059C270.664 110.825 270.121 111.721 269.705 112.775C269.322 113.83 269.098 114.948 269.098 116.163C269.098 117.153 269.002 117.92 268.811 118.559C268.619 119.167 268.364 119.646 268.044 119.998C267.725 120.349 267.373 120.605 266.958 120.732C266.542 120.86 266.127 120.924 265.712 120.924H263.475C262.645 120.924 261.942 120.796 261.367 120.573C260.792 120.317 260.313 119.998 259.961 119.582C259.61 119.167 259.354 118.687 259.194 118.112C259.067 117.537 258.971 116.93 258.971 116.259V109.1H255.84V117.92C255.84 118.847 255.68 119.582 255.361 120.125C255.041 120.668 254.402 120.956 253.444 120.956H224.946V115.14C224.946 114.021 224.786 112.999 224.435 112.072C224.083 111.145 223.604 110.346 222.997 109.675C222.39 109.004 221.623 108.493 220.729 108.142C219.834 107.79 218.844 107.598 217.726 107.598C216.576 107.598 215.489 107.854 214.499 108.334C213.509 108.813 212.646 109.452 211.943 110.282C211.208 111.081 210.665 112.04 210.25 113.159C209.835 114.245 209.643 115.428 209.643 116.642C209.643 117.569 209.803 118.463 210.09 119.391C210.41 120.317 210.889 121.116 211.56 121.819C212.231 122.521 213.125 123.098 214.212 123.545C215.298 123.992 216.64 124.216 218.205 124.216H253.731C254.242 124.216 254.722 124.184 255.201 124.088C255.68 124.024 256.127 123.864 256.543 123.641C256.958 123.417 257.341 123.129 257.661 122.714C258.012 122.298 258.3 121.755 258.587 121.116C258.907 122.234 259.514 123.034 260.345 123.513C261.207 123.992 262.198 124.216 263.38 124.216H266.031C266.862 124.216 267.693 123.928 268.491 123.385C269.29 122.842 269.897 122.01 270.248 120.892C270.983 122.106 271.878 123.002 272.9 123.577C273.922 124.152 275.2 124.439 276.734 124.439C277.341 124.439 277.98 124.407 278.555 124.312C279.162 124.248 279.737 124.056 280.28 123.8C280.855 123.545 281.398 123.161 281.941 122.65C282.485 122.138 283.028 121.467 283.539 120.637C283.731 121.339 284.018 121.914 284.369 122.394C284.753 122.842 285.168 123.225 285.647 123.513C286.127 123.8 286.638 123.992 287.181 124.088C287.724 124.184 288.299 124.248 288.842 124.248H309.353V114.884ZM221.751 120.924H217.981C217.279 120.924 216.608 120.828 215.969 120.637C215.33 120.445 214.787 120.157 214.275 119.742C213.764 119.327 213.381 118.814 213.093 118.144C212.806 117.473 212.646 116.706 212.646 115.747C212.646 114.948 212.774 114.245 213.029 113.606C213.285 112.967 213.636 112.424 214.084 111.977C214.531 111.497 215.042 111.145 215.585 110.921C216.128 110.698 216.703 110.57 217.31 110.57C218.748 110.57 219.834 111.081 220.601 112.072C221.368 113.095 221.751 114.5 221.751 116.354V120.924ZM281.271 118.144C281.079 118.719 280.791 119.263 280.408 119.678C280.025 120.125 279.545 120.477 278.938 120.764C278.331 121.02 277.628 121.18 276.83 121.18C275.999 121.18 275.296 121.052 274.689 120.764C274.114 120.509 273.603 120.125 273.22 119.678C272.836 119.231 272.549 118.719 272.357 118.144C272.165 117.569 272.069 116.898 272.069 116.195C272.069 115.332 272.197 114.564 272.453 113.862C272.708 113.191 273.028 112.584 273.475 112.104C273.922 111.625 274.434 111.241 275.009 110.985C275.584 110.73 276.191 110.57 276.83 110.57C277.437 110.57 278.012 110.698 278.587 110.985C279.162 111.241 279.673 111.625 280.088 112.104C280.536 112.584 280.887 113.159 281.143 113.862C281.398 114.532 281.526 115.332 281.526 116.195C281.558 116.898 281.462 117.537 281.271 118.144ZM306.19 120.924H301.717C300.791 120.796 299.992 120.541 299.385 120.157C298.778 119.838 298.235 119.327 297.756 118.623C297.276 117.92 297.021 116.961 297.021 115.747C297.021 114.948 297.149 114.245 297.436 113.606C297.724 112.967 298.075 112.424 298.522 111.977C298.97 111.497 299.513 111.145 300.088 110.921C300.695 110.698 301.302 110.57 301.941 110.57C302.676 110.57 303.347 110.698 303.858 110.953C304.401 111.209 304.848 111.529 305.168 111.913C305.519 112.296 305.743 112.743 305.934 113.255C306.094 113.734 306.19 114.245 306.19 114.692V120.924Z" fill="white"/>
<path d="M303.347 100.216C302.995 100.568 302.804 101.015 302.804 101.527C302.804 102.038 302.995 102.453 303.347 102.836C303.698 103.188 304.145 103.38 304.625 103.38C305.136 103.38 305.551 103.188 305.902 102.836C306.254 102.485 306.446 102.038 306.446 101.527C306.446 101.015 306.254 100.568 305.902 100.216C305.551 99.8644 305.104 99.6733 304.625 99.6733C304.145 99.6733 303.698 99.8644 303.347 100.216Z" fill="white"/>
<path d="M335.71 95.7422H338.777V124.12H335.71V95.7422Z" fill="white"/>
<path d="M211.464 49.1172C212.135 49.8203 213.029 50.3956 214.116 50.8429C215.202 51.2903 216.544 51.514 218.109 51.514H283.251C283.762 51.514 284.242 51.4821 284.721 51.3863C285.2 51.3223 285.647 51.1625 286.063 50.9388C286.478 50.7151 286.861 50.4275 287.181 50.0121C287.532 49.5967 287.82 49.0533 288.107 48.4143C288.427 49.5328 289.034 50.3317 289.865 50.811C290.727 51.2903 291.718 51.514 292.9 51.514H301.717C302.228 51.514 302.708 51.4821 303.187 51.3863C303.666 51.3223 304.113 51.1625 304.529 50.9388C304.944 50.7151 305.327 50.4275 305.647 50.0121C305.998 49.5967 306.286 49.0533 306.573 48.4143C306.893 49.5328 307.5 50.3317 308.331 50.811C309.193 51.2903 310.184 51.514 311.366 51.514H338.521C338.521 51.514 338.809 45.1547 338.521 42.5342C338.074 38.1242 335.359 33.7461 328.138 33.7461C323.921 33.7461 321.014 35.0883 321.014 35.0883L321.429 37.8685C321.429 37.8685 323.314 36.9418 326.701 36.6542C328.362 36.5263 331.685 36.5263 333.282 38.0603C336.221 40.8724 335.263 48.2864 335.263 48.2864H331.365V45.3464C331.365 44.6114 331.237 43.9403 331.014 43.3331C330.79 42.7259 330.471 42.1827 330.055 41.7673C329.64 41.3198 329.161 41.0003 328.554 40.7446C327.979 40.489 327.308 40.3931 326.573 40.3931C325.806 40.3931 325.103 40.5529 324.464 40.8724C323.825 41.192 323.25 41.6074 322.771 42.1508C322.292 42.694 321.94 43.3012 321.653 44.0362C321.397 44.7712 321.269 45.5062 321.269 46.3051C321.269 46.9122 321.365 47.5194 321.557 48.1267C321.589 48.2225 321.653 48.2864 321.685 48.3822H311.429C310.599 48.3822 309.896 48.2544 309.321 48.0307C308.746 47.7751 308.267 47.4555 307.915 47.0401C307.564 46.6247 307.308 46.1453 307.148 45.5701C307.021 44.9948 306.925 44.3877 306.925 43.7166V36.5583H303.794V45.3783C303.794 46.3051 303.634 47.0401 303.315 47.5833C302.995 48.1267 302.356 48.4143 301.398 48.4143H293.059C292.229 48.4143 291.526 48.2864 290.951 48.0628C290.376 47.8071 289.897 47.4875 289.545 47.0721C289.194 46.6566 288.938 46.1773 288.778 45.6021C288.651 45.0268 288.555 44.4197 288.555 43.7486V36.5903H285.424V45.4103C285.424 46.3371 285.264 47.0721 284.945 47.6153C284.625 48.1586 283.986 48.4462 283.028 48.4462H224.882V42.6301C224.882 41.5116 224.722 40.489 224.371 39.5623C224.02 38.6355 223.54 37.8366 222.933 37.1655C222.326 36.4944 221.56 35.9831 220.665 35.6316C219.77 35.28 218.78 35.0883 217.662 35.0883C216.512 35.0883 215.426 35.3439 214.435 35.8233C213.445 36.3027 212.582 36.9418 211.879 37.7727C211.145 38.5716 210.601 39.5303 210.186 40.6488C209.771 41.7353 209.579 42.9177 209.579 44.132C209.579 45.0587 209.739 45.9536 210.026 46.8803C210.314 47.5833 210.793 48.4143 211.464 49.1172ZM325.774 48.1906C325.455 48.0947 325.167 47.9349 324.944 47.7432C324.688 47.5514 324.496 47.2638 324.368 46.9443C324.209 46.6247 324.145 46.2093 324.145 45.7618C324.145 45.3783 324.209 45.0268 324.337 44.7073C324.464 44.3877 324.656 44.132 324.848 43.8764C325.071 43.6527 325.327 43.4609 325.582 43.3651C325.87 43.2373 326.158 43.2052 326.445 43.2052C327.148 43.2052 327.691 43.4609 328.074 43.9723C328.458 44.4836 328.649 45.1866 328.649 46.1133V48.3822H326.765C326.413 48.3183 326.094 48.2864 325.774 48.1906ZM213.029 41.0323C213.285 40.3931 213.636 39.8498 214.084 39.4024C214.531 38.9231 215.042 38.5716 215.585 38.3478C216.128 38.1242 216.703 37.9963 217.31 37.9963C218.748 37.9963 219.834 38.5077 220.601 39.4983C221.368 40.5209 221.751 41.927 221.751 43.7805V48.3183H217.981C217.279 48.3183 216.608 48.2225 215.969 48.0307C215.33 47.839 214.787 47.5514 214.275 47.136C213.764 46.7205 213.381 46.2093 213.093 45.5382C212.806 44.867 212.646 44.1001 212.646 43.1414C212.646 42.3744 212.774 41.6713 213.029 41.0323Z" fill="white"/>
<path d="M220.154 30.7424C220.665 30.7424 221.08 30.5506 221.432 30.1992C221.783 29.8477 221.975 29.4002 221.975 28.8889C221.975 28.3776 221.783 27.9302 221.432 27.5786C221.08 27.2272 220.633 27.0354 220.154 27.0354C219.643 27.0354 219.227 27.2272 218.876 27.5786C218.524 27.9302 218.333 28.3776 218.333 28.8889C218.333 29.4002 218.524 29.8156 218.876 30.1992C219.227 30.5827 219.675 30.7424 220.154 30.7424Z" fill="white"/>
<path d="M214.882 30.7424C215.394 30.7424 215.841 30.5506 216.192 30.1992C216.544 29.8477 216.735 29.4002 216.735 28.8889C216.735 28.3776 216.544 27.9302 216.192 27.5786C215.841 27.2272 215.394 27.0354 214.882 27.0354C214.403 27.0354 213.988 27.2272 213.605 27.5786C213.253 27.9302 213.061 28.3776 213.061 28.8889C213.061 29.4002 213.253 29.8156 213.605 30.1992C213.988 30.5827 214.403 30.7424 214.882 30.7424Z" fill="white"/>
<path d="M291.398 29.3681H290.408C289.737 29.3681 289.13 29.2723 288.619 29.0805C288.107 28.8888 287.692 28.6651 287.341 28.3774C287.021 28.0899 286.766 27.7703 286.606 27.3869C286.446 27.0034 286.35 26.6518 286.35 26.2684C286.35 25.5334 286.606 24.9901 287.149 24.6385C287.692 24.3189 288.363 24.1273 289.194 24.1273C289.385 24.1273 289.641 24.1273 289.928 24.1592C290.216 24.1911 290.44 24.2231 290.599 24.255L290.855 22.2738C290.567 22.2099 290.248 22.1459 289.897 22.1139C289.577 22.082 289.258 22.082 288.938 22.082C288.203 22.082 287.564 22.1779 286.989 22.4016C286.414 22.6253 285.935 22.9129 285.584 23.2645C285.2 23.6159 284.913 24.0314 284.721 24.5107C284.529 24.9581 284.433 25.4694 284.433 25.9488C284.433 26.4281 284.561 26.9713 284.785 27.5785C285.008 28.1858 285.424 28.7929 286.063 29.3362H283.123V31.3175H291.398V29.3681Z" fill="white"/>
<path d="M298.139 59.726C298.65 59.726 299.066 59.5343 299.449 59.1829C299.8 58.8315 299.992 58.4161 299.992 57.905C299.992 57.3938 299.8 56.9785 299.449 56.5951C299.098 56.2437 298.65 56.052 298.139 56.052C297.66 56.052 297.213 56.2437 296.861 56.5951C296.51 56.9465 296.318 57.3938 296.318 57.905C296.318 58.3842 296.51 58.8315 296.861 59.1829C297.213 59.5343 297.628 59.726 298.139 59.726Z" fill="white"/>
<path d="M304.72 59.1829C305.072 58.8315 305.264 58.4161 305.264 57.905C305.264 57.3938 305.072 56.9785 304.72 56.5951C304.369 56.2437 303.922 56.052 303.411 56.052C302.931 56.052 302.484 56.2437 302.133 56.5951C301.781 56.9465 301.589 57.3938 301.589 57.905C301.589 58.3842 301.781 58.8315 302.133 59.1829C302.484 59.5343 302.899 59.726 303.411 59.726C303.922 59.726 304.337 59.5343 304.72 59.1829Z" fill="white"/>
<path d="M218.876 63.4019C218.524 63.7535 218.333 64.2008 218.333 64.7121C218.333 65.2235 218.524 65.6389 218.876 66.0224C219.227 66.3739 219.643 66.5656 220.154 66.5656C220.665 66.5656 221.08 66.3739 221.432 66.0224C221.783 65.6708 221.975 65.2235 221.975 64.7121C221.975 64.2008 221.783 63.7535 221.432 63.4019C221.08 63.0504 220.633 62.8586 220.154 62.8586C219.675 62.8586 219.227 63.0504 218.876 63.4019Z" fill="white"/>
<path d="M211.464 84.909C212.135 85.612 213.029 86.1873 214.116 86.6347C215.202 87.082 216.544 87.3058 218.109 87.3058H231.272C232.39 87.3058 233.348 87.0501 234.115 86.5388C234.882 86.0275 235.489 85.1647 235.968 83.9823C236.447 84.7492 236.959 85.3564 237.502 85.8038C238.045 86.2512 238.62 86.6027 239.227 86.8583C239.834 87.114 240.409 87.2418 241.016 87.3377C241.623 87.4016 242.166 87.4336 242.677 87.4336C244.051 87.4336 245.233 87.2098 246.192 86.7625C247.15 86.3151 247.917 85.7398 248.492 85.0048C249.067 84.2698 249.514 83.407 249.77 82.4803C250.025 81.5535 250.185 80.5949 250.185 79.6042C250.185 78.2939 250.025 77.1115 249.738 76.057C249.418 75.0024 248.971 74.0757 248.364 73.3087C247.757 72.5418 246.958 71.9665 246.032 71.5191C245.105 71.0718 243.987 70.848 242.741 70.848C241.623 70.848 240.569 71.0718 239.578 71.4872C238.62 71.9026 237.789 72.5098 237.086 73.2448C236.383 73.9798 235.84 74.8746 235.457 75.9292C235.042 76.9838 234.85 78.1022 234.85 79.3485C234.85 82.5123 233.732 84.1101 231.463 84.1101H224.914V78.2939C224.914 77.1754 224.754 76.1528 224.403 75.2261C224.052 74.2993 223.572 73.5004 222.965 72.8294C222.358 72.1583 221.592 71.6469 220.697 71.2954C219.802 70.9439 218.812 70.7522 217.694 70.7522C216.544 70.7522 215.457 71.0079 214.467 71.4872C213.477 71.9665 212.614 72.6057 211.911 73.4365C211.176 74.2354 210.633 75.1942 210.218 76.3126C209.803 77.3992 209.611 78.5816 209.611 79.7959C209.611 80.7227 209.771 81.6174 210.058 82.5442C210.314 83.3751 210.793 84.2059 211.464 84.909ZM238.236 77.0477C238.492 76.3765 238.843 75.7693 239.291 75.29C239.738 74.8107 240.249 74.4272 240.824 74.1715C241.399 73.9158 242.006 73.7561 242.645 73.7561C243.22 73.7561 243.795 73.8839 244.339 74.1715C244.914 74.4272 245.425 74.8107 245.84 75.29C246.287 75.7693 246.639 76.3446 246.894 77.0477C247.15 77.7188 247.278 78.5177 247.278 79.3805C247.278 80.0835 247.182 80.7227 246.99 81.3299C246.799 81.9051 246.511 82.4484 246.128 82.8638C245.744 83.3112 245.265 83.6627 244.658 83.9503C244.051 84.2059 243.38 84.3658 242.581 84.3658C241.719 84.3658 240.984 84.2379 240.409 83.9503C239.834 83.6947 239.323 83.3112 238.971 82.8638C238.588 82.4163 238.3 81.9051 238.109 81.3299C237.917 80.7546 237.821 80.0835 237.821 79.3805C237.853 78.5177 237.981 77.7507 238.236 77.0477ZM213.029 76.8239C213.285 76.1849 213.636 75.6415 214.084 75.1942C214.531 74.7148 215.042 74.3633 215.585 74.1396C216.128 73.9158 216.703 73.7881 217.31 73.7881C218.748 73.7881 219.834 74.2994 220.601 75.29C221.368 76.3126 221.751 77.7188 221.751 79.5723V84.1101H217.981C217.279 84.1101 216.608 84.0142 215.969 83.8224C215.33 83.6308 214.787 83.3431 214.275 82.9277C213.764 82.5123 213.381 82.0009 213.093 81.3299C212.806 80.6588 212.646 79.8918 212.646 78.9331C212.646 78.1661 212.774 77.4631 213.029 76.8239Z" fill="white"/>
<path d="M213.605 63.4019C213.253 63.7535 213.061 64.2008 213.061 64.7121C213.061 65.2235 213.253 65.6389 213.605 66.0224C213.956 66.3739 214.371 66.5656 214.882 66.5656C215.394 66.5656 215.841 66.3739 216.192 66.0224C216.544 65.6708 216.735 65.2235 216.735 64.7121C216.735 64.2008 216.544 63.7535 216.192 63.4019C215.841 63.0504 215.394 62.8586 214.882 62.8586C214.403 62.8586 213.988 63.0504 213.605 63.4019Z" fill="white"/>
<path d="M313.251 87.3056C313.762 87.3056 314.305 87.1457 314.816 86.8581C315.327 86.5706 315.87 85.9314 316.445 84.9088C317.084 85.7716 317.819 86.3788 318.65 86.7303C319.48 87.1138 320.439 87.2736 321.557 87.2736H325.551C326.509 87.2736 327.308 87.1138 327.947 86.8262C328.586 86.5386 329.097 86.1551 329.512 85.6438C329.895 85.1645 330.183 84.5892 330.375 83.9501C330.566 83.311 330.662 82.6399 330.662 81.9368V58.896H327.531V81.106C327.531 81.809 327.435 82.3203 327.276 82.7038C327.116 83.0872 326.892 83.3749 326.637 83.5986C326.381 83.8222 326.062 83.9501 325.742 84.014C325.423 84.0779 325.135 84.1099 324.848 84.1099H321.813C321.014 84.1099 320.375 83.9501 319.864 83.5986C319.353 83.2471 318.937 82.7996 318.618 82.2244C318.298 81.6492 318.043 80.9461 317.883 80.1792C317.723 79.3803 317.595 78.5494 317.5 77.6866C317.468 76.9197 317.308 76.0887 317.084 75.2579C316.829 74.427 316.477 73.6601 315.934 72.989C315.423 72.3178 314.752 71.7746 313.921 71.3272C313.091 70.9117 312.1 70.6881 310.886 70.6881C310.375 70.6881 309.832 70.72 309.289 70.8159C308.746 70.8798 308.203 70.9757 307.692 71.0716C307.18 71.1674 306.669 71.2952 306.222 71.4231C305.743 71.5509 305.359 71.6787 305.072 71.8066L305.871 74.8744C306.541 74.5868 307.276 74.3631 308.043 74.1713C308.81 74.0116 309.449 73.9156 309.96 73.9156C311.174 73.9156 312.132 74.2672 312.867 74.9383C313.602 75.6094 314.049 76.7918 314.273 78.5175C314.497 80.0833 314.72 81.2657 314.976 82.0967C315.231 82.9275 315.551 83.5986 315.934 84.1418H298.842C298.778 81.9368 298.586 78.4216 298.267 77.6547C297.884 76.664 297.34 75.8651 296.638 75.2579C295.967 74.6507 295.136 74.2033 294.178 73.9477C293.219 73.692 280.6 73.5322 279.449 73.5322H278.683L288.81 66.5657L287.085 64.2647L274.114 73.3724V76.5362H287.213C288.491 76.5362 292.452 76.664 293.187 76.8876C293.954 77.1113 294.529 77.4948 294.912 78.0381C295.296 78.5814 295.551 79.2844 295.679 80.2111C295.711 80.4668 295.743 82.576 295.743 84.1738H268.459V78.3576C268.459 77.2391 268.3 76.2166 267.948 75.2898C267.597 74.3631 267.118 73.5641 266.511 72.8931C265.903 72.222 265.137 71.7106 264.242 71.3592C263.348 71.0077 262.325 70.8159 261.207 70.8159C260.057 70.8159 258.971 71.0716 257.98 71.5509C256.99 72.0302 256.127 72.6694 255.425 73.5002C254.722 74.2991 254.147 75.2579 253.763 76.3763C253.38 77.4629 253.156 78.6453 253.156 79.8597C253.156 80.7864 253.316 81.6811 253.604 82.6079C253.923 83.5346 254.402 84.3336 255.073 85.0367C255.744 85.7396 256.639 86.3149 257.725 86.7623C258.811 87.2096 260.153 87.4334 261.718 87.4334H265.424C265.392 88.6797 265.201 89.7023 264.817 90.5012C264.434 91.3001 263.955 91.9073 263.348 92.3547C262.741 92.802 262.038 93.1216 261.239 93.2815C260.44 93.4412 259.61 93.5051 258.715 93.5051C258.172 93.5051 257.629 93.4732 257.054 93.4412C256.479 93.4093 255.872 93.3454 255.265 93.3134C255.201 93.7926 255.169 94.3038 255.105 94.7839C255.073 95.263 255.009 95.7741 254.977 96.3173C255.584 96.4133 256.191 96.4773 256.766 96.5093C257.341 96.5414 257.916 96.5414 258.46 96.5414C259.929 96.5414 261.239 96.3813 262.453 96.0302C263.667 95.7101 264.721 95.167 265.616 94.4318C266.511 93.6966 267.213 92.7382 267.693 91.5877C268.172 90.4373 268.459 89.0312 268.491 87.4014H313.251V87.3056ZM265.392 84.1099H261.559C260.856 84.1099 260.185 84.014 259.546 83.8222C258.907 83.6306 258.364 83.3429 257.853 82.9275C257.341 82.5121 256.958 82.0007 256.67 81.3296C256.383 80.6586 256.223 79.8916 256.223 78.9329C256.223 78.134 256.351 77.4309 256.607 76.7918C256.862 76.1527 257.214 75.6094 257.661 75.162C258.076 74.6827 258.587 74.3312 259.162 74.1074C259.738 73.8837 260.345 73.7559 260.952 73.7559C262.293 73.7559 263.38 74.2672 264.178 75.2579C264.977 76.2805 265.36 77.6866 265.36 79.5401V84.1099H265.392Z" fill="white"/>
<path d="M335.71 58.96H338.777V87.3375H335.71V58.96Z" fill="white"/>
<path d="M418.647 66.9492C417.912 67.4604 417.497 68.2914 417.497 69.1861V91.5878C417.497 93.0898 418.711 94.3038 420.213 94.3038C421.714 94.3038 422.928 93.0898 422.928 91.5878V70.5922L446.73 53.9428C447.528 54.3582 448.455 54.6139 449.413 54.6139C452.64 54.6139 455.26 51.9935 455.26 48.7658C455.26 45.5382 452.64 42.9177 449.413 42.9177C446.186 42.9177 443.567 45.5382 443.567 48.7658C443.567 49.0215 443.599 49.2451 443.631 49.4689L418.647 66.9492Z" fill="url(#paint0_linear_101_133)"/>
<path d="M401.779 61.0052V83.3111C399.926 84.3017 398.648 86.2511 398.648 88.4881C398.648 91.7156 401.267 94.3358 404.494 94.3358C407.721 94.3358 410.341 91.7156 410.341 88.4881C410.341 86.2511 409.063 84.3017 407.21 83.3111V62.4433L442.353 37.8367C443.087 37.3254 443.503 36.4945 443.503 35.5997V18.9822C443.503 17.4803 442.289 16.2659 440.787 16.2659C439.286 16.2659 438.072 17.4803 438.072 18.9822V34.1936L402.929 58.8003C402.194 59.2796 401.779 60.1105 401.779 61.0052Z" fill="url(#paint1_linear_101_133)"/>
<path d="M443.918 68.4833L434.941 74.7787C433.727 75.6415 433.407 77.3353 434.27 78.5496C434.813 79.3166 435.644 79.7 436.506 79.7C437.049 79.7 437.592 79.5403 438.072 79.2207L447.049 72.9252C448.263 72.0624 448.583 70.3687 447.72 69.1544C446.857 67.908 445.164 67.6204 443.918 68.4833Z" fill="url(#paint2_linear_101_133)"/>
<path d="M461.074 84.2698C460.212 83.0235 458.454 82.704 457.209 83.5988L414.781 113.318L372.354 83.5988C371.108 82.7359 369.383 83.0235 368.489 84.2698C367.626 85.5162 367.914 87.2418 369.16 88.1366L409.925 116.706L397.977 125.078C397.146 124.663 396.252 124.407 395.261 124.407C391.971 124.407 389.319 127.06 389.319 130.352C389.319 133.643 391.971 136.295 395.261 136.295C398.552 136.295 401.204 133.643 401.204 130.352C401.204 130.096 401.172 129.841 401.14 129.616L414.75 120.093L428.359 129.616C428.327 129.873 428.295 130.096 428.295 130.352C428.295 133.643 430.947 136.295 434.238 136.295C437.529 136.295 440.18 133.643 440.18 130.352C440.18 127.06 437.529 124.407 434.238 124.407C433.247 124.407 432.321 124.663 431.522 125.078L419.574 116.706L460.339 88.1366C461.649 87.2738 461.937 85.5162 461.074 84.2698Z" fill="url(#paint3_linear_101_133)"/>
<path d="M385.645 19.909L394.622 13.6135C395.836 12.7506 396.156 11.057 395.293 9.84265C394.75 9.07564 393.919 8.69214 393.057 8.69214C392.514 8.69214 391.971 8.85198 391.491 9.17157L382.514 15.467C381.3 16.3298 380.98 18.0236 381.843 19.2379C382.706 20.4842 384.399 20.7718 385.645 19.909Z" fill="url(#paint4_linear_101_133)"/>
<path d="M422.353 11.025V25.9808L387.21 50.5875C386.475 51.0987 386.06 51.9297 386.06 52.8244V69.4419C386.06 70.9439 387.274 72.1582 388.776 72.1582C390.277 72.1582 391.491 70.9439 391.491 69.4419V54.2305L426.634 29.6238C427.369 29.1126 427.784 28.2817 427.784 27.3869V11.025C429.637 10.0344 430.915 8.08502 430.915 5.84812C430.915 2.62045 428.295 0 425.069 0C421.842 0 419.222 2.62045 419.222 5.84812C419.222 8.08502 420.5 10.0344 422.353 11.025Z" fill="url(#paint5_linear_101_133)"/>
<path d="M380.15 45.4744C383.377 45.4744 385.996 42.8539 385.996 39.6264C385.996 39.3707 385.964 39.1469 385.932 38.9233L410.884 21.443C411.619 20.9316 412.034 20.1008 412.034 19.206V2.74831C412.034 1.24634 410.82 0.0319824 409.318 0.0319824C407.817 0.0319824 406.603 1.24634 406.603 2.74831V17.7999L382.801 34.4494C382.003 34.0339 381.076 33.7783 380.118 33.7783C376.891 33.7783 374.271 36.3987 374.271 39.6264C374.271 42.8539 376.923 45.4744 380.15 45.4744Z" fill="url(#paint6_linear_101_133)"/>
<defs>
<linearGradient id="paint0_linear_101_133" x1="436.375" y1="17.6572" x2="436.375" y2="123.819" gradientUnits="userSpaceOnUse">
<stop stop-color="#00B5B5"/>
<stop offset="0.278" stop-color="#0093B8"/>
<stop offset="0.4756" stop-color="#007FB9"/>
<stop offset="1" stop-color="#76469D"/>
</linearGradient>
<linearGradient id="paint1_linear_101_133" x1="421.078" y1="17.6572" x2="421.078" y2="123.819" gradientUnits="userSpaceOnUse">
<stop stop-color="#00B5B5"/>
<stop offset="0.278" stop-color="#0093B8"/>
<stop offset="0.4756" stop-color="#007FB9"/>
<stop offset="1" stop-color="#76469D"/>
</linearGradient>
<linearGradient id="paint2_linear_101_133" x1="440.995" y1="17.6574" x2="440.995" y2="123.819" gradientUnits="userSpaceOnUse">
<stop stop-color="#00B5B5"/>
<stop offset="0.278" stop-color="#0093B8"/>
<stop offset="0.4756" stop-color="#007FB9"/>
<stop offset="1" stop-color="#76469D"/>
</linearGradient>
<linearGradient id="paint3_linear_101_133" x1="414.781" y1="17.6574" x2="414.781" y2="123.819" gradientUnits="userSpaceOnUse">
<stop stop-color="#00B5B5"/>
<stop offset="0.278" stop-color="#0093B8"/>
<stop offset="0.4756" stop-color="#007FB9"/>
<stop offset="1" stop-color="#76469D"/>
</linearGradient>
<linearGradient id="paint4_linear_101_133" x1="388.565" y1="17.6573" x2="388.565" y2="123.819" gradientUnits="userSpaceOnUse">
<stop stop-color="#00B5B5"/>
<stop offset="0.278" stop-color="#0093B8"/>
<stop offset="0.4756" stop-color="#007FB9"/>
<stop offset="1" stop-color="#76469D"/>
</linearGradient>
<linearGradient id="paint5_linear_101_133" x1="408.481" y1="17.6573" x2="408.481" y2="123.819" gradientUnits="userSpaceOnUse">
<stop stop-color="#00B5B5"/>
<stop offset="0.278" stop-color="#0093B8"/>
<stop offset="0.4756" stop-color="#007FB9"/>
<stop offset="1" stop-color="#76469D"/>
</linearGradient>
<linearGradient id="paint6_linear_101_133" x1="393.185" y1="17.6573" x2="393.185" y2="123.819" gradientUnits="userSpaceOnUse">
<stop stop-color="#00B5B5"/>
<stop offset="0.278" stop-color="#0093B8"/>
<stop offset="0.4756" stop-color="#007FB9"/>
<stop offset="1" stop-color="#76469D"/>
</linearGradient>
</defs>
</svg>
